<svg width="0" height="0" class="hidden">
  <symbol xmlns="http://www.w3.org/2000/svg" fill="currentColor" viewBox="0 0 16 16" id="search">
    <path d="M11.742 10.344a6.5 6.5 0 10-1.397 1.398h-.001c.03.04.062.078.098.115l3.85 3.85a1 1 0 001.415-1.414l-3.85-3.85a1.007 1.007 0 00-.115-.1zM12 6.5a5.5 5.5 0 11-11 0 5.5 5.5 0 0111 0z"></path>
  </symbol>
  <symbol xmlns="http://www.w3.org/2000/svg" fill="currentColor" viewBox="0 0 16 16" id="pencil">
    <path d="M12.146.146a.5.5 0 01.708 0l3 3a.5.5 0 010 .708l-10 10a.5.5 0 01-.168.11l-5 2a.5.5 0 01-.65-.65l2-5a.5.5 0 01.11-.168l10-10zM11.207 2.5L13.5 4.793 14.793 3.5 12.5 1.207 11.207 2.5zm1.586 3L10.5 3.207 4 9.707V10h.5a.5.5 0 01.5.5v.5h.5a.5.5 0 01.5.5v.5h.293l6.5-6.5zm-9.761 5.175l-.106.106-1.528 3.821 3.821-1.528.106-.106A.5.5 0 015 12.5V12h-.5a.5.5 0 01-.5-.5V11h-.5a.5.5 0 01-.468-.325z"></path>
  </symbol>
  <symbol xmlns="http://www.w3.org/2000/svg" fill="currentColor" viewBox="0 0 16 16" id="cursor-fill">
    <path d="M14.082 2.182a.5.5 0 01.103.557L8.528 15.467a.5.5 0 01-.917-.007L5.57 10.694.803 8.652a.5.5 0 01-.006-.916l12.728-5.657a.5.5 0 01.556.103z"></path>
  </symbol>
  <symbol xmlns="http://www.w3.org/2000/svg" fill="currentColor" viewBox="0 0 16 16" id="droplet">
    <path fill-rule="evenodd" d="M7.21.8C7.69.295 8 0 8 0c.109.363.234.708.371 1.038.812 1.946 2.073 3.35 3.197 4.6C12.878 7.096 14 8.345 14 10a6 6 0 01-12 0C2 6.668 5.58 2.517 7.21.8zm.413 1.021A31.25 31.25 0 005.794 3.99c-.726.95-1.436 2.008-1.96 3.07C3.304 8.133 3 9.138 3 10a5 5 0 0010 0c0-1.201-.796-2.157-2.181-3.7l-.03-.032C9.75 5.11 8.5 3.72 7.623 1.82z"></path>
    <path fill-rule="evenodd" d="M4.553 7.776c.82-1.641 1.717-2.753 2.093-3.13l.708.708c-.29.29-1.128 1.311-1.907 2.87l-.894-.448z"></path>
  </symbol>
  <symbol xmlns="http://www.w3.org/2000/svg" fill="currentColor" viewBox="0 0 16 16" id="droplet-fill">
    <path fill-rule="evenodd" d="M8 16a6 6 0 006-6c0-1.655-1.122-2.904-2.432-4.362C10.254 4.176 8.75 2.503 8 0c0 0-6 5.686-6 10a6 6 0 006 6zM6.646 4.646c-.376.377-1.272 1.489-2.093 3.13l.894.448c.78-1.559 1.616-2.58 1.907-2.87l-.708-.708z"></path>
  </symbol>
  <symbol xmlns="http://www.w3.org/2000/svg" fill="currentColor" viewBox="0 0 16 16" id="eye-slash-fill">
    <path d="M10.79 12.912l-1.614-1.615a3.5 3.5 0 01-4.474-4.474l-2.06-2.06C.938 6.278 0 8 0 8s3 5.5 8 5.5a7.027 7.027 0 002.79-.588zM5.21 3.088A7.028 7.028 0 018 2.5c5 0 8 5.5 8 5.5s-.939 1.721-2.641 3.238l-2.062-2.062a3.5 3.5 0 00-4.474-4.474L5.21 3.088z"></path>
    <path d="M5.525 7.646a2.5 2.5 0 002.829 2.829l-2.83-2.829zm4.95.708l-2.829-2.83a2.5 2.5 0 012.829 2.829zm3.171 6l-12-12 .708-.708 12 12-.708.707z"></path>
  </symbol>
  <symbol xmlns="http://www.w3.org/2000/svg" fill="currentColor" viewBox="0 0 16 16" id="plus-circle-fill">
    <path d="M16 8A8 8 0 110 8a8 8 0 0116 0zM8.5 4.5a.5.5 0 00-1 0v3h-3a.5.5 0 000 1h3v3a.5.5 0 001 0v-3h3a.5.5 0 000-1h-3v-3z"></path>
  </symbol>
  <symbol xmlns="http://www.w3.org/2000/svg" fill="currentColor" viewBox="0 0 16 16" id="geo-alt-fill">
    <path d="M8 15A7 7 0 118 1a7 7 0 010 14zm0 1A8 8 0 108 0a8 8 0 000 16z"></path>
    <path d="M5.255 5.786a.237.237 0 00.241.247h.825c.138 0 .248-.113.266-.25.09-.656.54-1.134 1.342-1.134.686 0 1.314.343 1.314 1.168 0 .635-.374.927-.965 1.371-.673.489-1.206 1.06-1.168 1.987l.003.217a.25.25 0 00.25.246h.811a.25.25 0 00.25-.25v-.105c0-.718.273-.927 1.01-1.486.609-.463 1.244-.977 1.244-2.056 0-1.511-1.276-2.241-2.673-2.241-1.267 0-2.655.59-2.75 2.286zm1.557 5.763c0 .533.425.927 1.01.927.609 0 1.028-.394 1.028-.927 0-.552-.42-.94-1.029-.94-.584 0-1.009.388-1.009.94z"></path>
  </symbol>
  <symbol xmlns="http://www.w3.org/2000/svg" fill="currentColor" viewBox="0 0 16 16" id="plus-circle-fill-old">
    <path d="M16 8A8 8 0 110 8a8 8 0 0116 0zM5.496 6.033h.825c.138 0 .248-.113.266-.25.09-.656.54-1.134 1.342-1.134.686 0 1.314.343 1.314 1.168 0 .635-.374.927-.965 1.371-.673.489-1.206 1.06-1.168 1.987l.003.217a.25.25 0 00.25.246h.811a.25.25 0 00.25-.25v-.105c0-.718.273-.927 1.01-1.486.609-.463 1.244-.977 1.244-2.056 0-1.511-1.276-2.241-2.673-2.241-1.267 0-2.655.59-2.75 2.286a.237.237 0 00.241.247zm2.325 6.443c.61 0 1.029-.394 1.029-.927 0-.552-.42-.94-1.029-.94-.584 0-1.009.388-1.009.94 0 .533.425.927 1.01.927z"></path>
  </symbol>
  
  <symbol xmlns="http://www.w3.org/2000/svg" fill="currentColor" viewBox="0 0 16 16" id="trash">
    <path d="M5.5 5.5A.5.5 0 016 6v6a.5.5 0 01-1 0V6a.5.5 0 01.5-.5zm2.5 0a.5.5 0 01.5.5v6a.5.5 0 01-1 0V6a.5.5 0 01.5-.5zm3 .5a.5.5 0 00-1 0v6a.5.5 0 001 0V6z"></path>
    <path fill-rule="evenodd" d="M14.5 3a1 1 0 01-1 1H13v9a2 2 0 01-2 2H5a2 2 0 01-2-2V4h-.5a1 1 0 01-1-1V2a1 1 0 011-1H6a1 1 0 011-1h2a1 1 0 011 1h3.5a1 1 0 011 1v1zM4.118 4L4 4.059V13a1 1 0 001 1h6a1 1 0 001-1V4.059L11.882 4H4.118zM2.5 3V2h11v1h-11z"></path>
  </symbol>
  <symbol xmlns="http://www.w3.org/2000/svg" fill="currentColor" viewBox="0 0 16 16" id="check-circle-fill">
    <path d="M16 8A8 8 0 110 8a8 8 0 0116 0zm-3.97-3.03a.75.75 0 00-1.08.022L7.477 9.417 5.384 7.323a.75.75 0 00-1.06 1.06L6.97 11.03a.75.75 0 001.079-.02l3.992-4.99a.75.75 0 00-.01-1.05z"></path>
  </symbol>

   <symbol xmlns="http://www.w3.org/2000/svg" fill="currentColor" viewBox="0 0 16 16" id="x-circle-fill">
    <path d="M16 8A8 8 0 110 8a8 8 0 0116 0zM5.354 4.646a.5.5 0 10-.708.708L7.293 8l-2.647 2.646a.5.5 0 00.708.708L8 8.707l2.646 2.647a.5.5 0 00.708-.708L8.707 8l2.647-2.646a.5.5 0 00-.708-.708L8 7.293 5.354 4.646z"></path>
  </symbol>
  <symbol xmlns="http://www.w3.org/2000/svg" fill="currentColor" viewBox="0 0 16 16" id="check-circle-fill">
    <path d="M16 8A8 8 0 110 8a8 8 0 0116 0zm-3.97-3.03a.75.75 0 00-1.08.022L7.477 9.417 5.384 7.323a.75.75 0 00-1.06 1.06L6.97 11.03a.75.75 0 001.079-.02l3.992-4.99a.75.75 0 00-.01-1.05z"></path>
  </symbol>
   <symbol xmlns="http://www.w3.org/2000/svg" fill="currentColor" viewBox="0 0 16 16" id="person-fill">
    <path d="M3 14s-1 0-1-1 1-4 6-4 6 3 6 4-1 1-1 1H3zm5-6a3 3 0 100-6 3 3 0 000 6z"></path>
  </symbol>
</svg>