<svg xmlns="http://www.w3.org/2000/svg" xmlns:xlink="http://www.w3.org/1999/xlink" viewBox="0 0 500 526.2"><defs><style>.cls-1,.cls-14,.cls-18,.cls-20,.cls-22,.cls-24,.cls-30,.cls-31,.cls-5{fill:none;}.cls-2{fill:#cce0fb;}.cls-3{clip-path:url(#clip-path);}.cls-4{fill:#97b9e8;}.cls-5{stroke:#e9f2f9;}.cls-14,.cls-18,.cls-20,.cls-24,.cls-31,.cls-5{stroke-linecap:round;}.cls-14,.cls-18,.cls-24,.cls-5{stroke-linejoin:round;}.cls-31,.cls-5{stroke-width:1.5px;}.cls-6{fill:#f0f6ff;}.cls-7{fill:#bad7ff;}.cls-8{clip-path:url(#clip-path-2);}.cls-13,.cls-19,.cls-9{fill:#fefefe;}.cls-9{opacity:0.67;}.cls-10,.cls-28{fill:#e72d3b;}.cls-11{fill:#ff7580;}.cls-12{fill:#b10a1e;}.cls-13{opacity:0.49;}.cls-14,.cls-31{stroke:#97b9e8;}.cls-14{stroke-width:3px;}.cls-15{fill:#fff;}.cls-16{fill:#f7ac99;}.cls-17{fill:#e39784;}.cls-18,.cls-24{stroke:#ff7580;}.cls-18,.cls-20{stroke-width:4px;}.cls-20{stroke:#fefefe;}.cls-20,.cls-22,.cls-30,.cls-31{stroke-miterlimit:10;}.cls-21{fill:#e9f2f9;}.cls-22{stroke:#e72d3b;stroke-width:2px;}.cls-23{clip-path:url(#clip-path-3);}.cls-24{stroke-width:10px;}.cls-25{font-size:30.35px;fill:#18196b;}.cls-25,.cls-28{font-family:Antonio-Bold, Antonio Bold;font-weight:700;}.cls-26{letter-spacing:-0.08em;}.cls-27{letter-spacing:0em;}.cls-28{font-size:61.41px;letter-spacing:0.01em;}.cls-29{letter-spacing:-0.03em;}.cls-30{stroke:#18196b;stroke-width:5px;}</style><clipPath id="clip-path"><rect class="cls-1" width="500" height="500"/></clipPath><clipPath id="clip-path-2"><circle class="cls-1" cx="250" cy="306.41" r="180.37"/></clipPath><clipPath id="clip-path-3"><path class="cls-1" d="M250,361.59a309.16,309.16,0,0,1-38.95-33c-23.12-23.33-35.9-45-38-64.49-1.34-12.48,1.54-23.07,8.33-30.64,6.62-7.37,16.49-11.43,27.8-11.43a40,40,0,0,1,32.37,17.15,10.18,10.18,0,0,0,16.88,0,40,40,0,0,1,32.38-17.15c11.3,0,21.17,4.06,27.79,11.43,6.8,7.57,9.68,18.16,8.34,30.64-2.1,19.46-14.88,41.16-38,64.49A309,309,0,0,1,250,361.59Z"/></clipPath></defs><title>LOGIN</title><g id="Layer_2" data-name="Layer 2"><g id="BACKGROUND"><rect class="cls-2" width="500" height="500"/></g><g id="OBJECTS"><g class="cls-3"><path class="cls-4" d="M478.33,268.5c-4.38-1.79-11.47-1.56-19.92.91a15.63,15.63,0,0,1-3.68,8.59,39.84,39.84,0,0,0-2.08-6.62C438,277,420.47,288.85,406,307.86c-17.6,21.82-31.61,56.14-39,84.51-7.77,28.44-8.92,50.92-9.2,50.89q9.11,4.64,17.89,9.62c0-.12,1.28-8.41,9.18-28,8.31-19.37,23.25-50,60-90.37A325,325,0,0,0,468,308.73c-4.92-2.94-11.15-3.53-16.29-5.73a147.88,147.88,0,0,1,22.54-2.7C486.5,282.53,487.15,272,478.33,268.5Z"/><path class="cls-5" d="M458.21,286.27s-75.81,46.8-89.72,160.2"/><path class="cls-5" d="M429.8,311c5.62-.72,14,1.28,14,1.28"/><path class="cls-5" d="M433.1,294.9a19.38,19.38,0,0,1,.66,11.77"/><path class="cls-5" d="M415,328.47c8.8-3.43,21-.31,21-.31"/><path class="cls-5" d="M411.45,314.79a28.5,28.5,0,0,1,1,17.31"/><path class="cls-5" d="M401.85,347.49c9.27-3.61,22.12-.33,22.12-.33"/><path class="cls-5" d="M396.72,336a30,30,0,0,1,1,18.23"/><path class="cls-4" d="M113.24,366.55c-4.38-29-14.72-64.59-29.93-88.13a116.35,116.35,0,0,0-30.2-33.5A49.6,49.6,0,0,1,46.72,254c1.3-4.55.91-8.68.75-12.93-13.12-8.3-25.23-11.33-31.93-9.38-9.33,2.62-9.6,13.53,1.35,33.21A41.07,41.07,0,0,0,42.72,270a93,93,0,0,1-20.37,4,331.71,331.71,0,0,0,19.5,26.89c32.33,44,44,76,50.2,96.17,5.8,20.29,6.19,28.66,6.19,28.78q9.25-4,18.8-7.69C116.76,418.12,118,395.65,113.24,366.55Z"/><path class="cls-5" d="M33.69,251.47s70.49,54.5,72.42,168.73"/><path class="cls-5" d="M59.35,279c-5.51-1.31-14-.19-14-.19"/><path class="cls-5" d="M57.75,262.69a19.38,19.38,0,0,0-1.89,11.64"/><path class="cls-5" d="M72.26,298c-8.39-4.33-20.86-2.52-20.86-2.52"/><path class="cls-5" d="M77.19,284.74a28.5,28.5,0,0,0-2.78,17.11"/><path class="cls-5" d="M83.31,318.27c-8.84-4.56-22-2.65-22-2.65"/><path class="cls-5" d="M89.61,307.42a30,30,0,0,0-2.93,18"/><path class="cls-4" d="M147.72,384.18c-24.65-8-30.47,27.4-7.28,52.27-17-10.88-73.14-49.86-92.88-32.24-18.16,16.21,7.24,41.58,66.85,49.07-4.33,1.73-44.82,23.37-36.1,37.38,13.67,22,78.95-17.2,78.95-17.2l17.92-11.85S172.61,392.21,147.72,384.18Z"/><path class="cls-5" d="M171.1,465.14S129.73,438.75,91,425.36"/><path class="cls-5" d="M143.94,403.14s19.26,35.18,20.78,58.09"/><path class="cls-5" d="M92.36,477.93s36.41-17.78,61.24-23.2"/><path class="cls-4" d="M394.21,380.65c16.76,18-37.66,53.2-39.48,58,19.18-13.08,72.53-55.3,95.82-35.71C472,421,416.6,448,384.33,444.41c9.12,1,65.34,3.63,61.06,29.39-5,30-78.65-12-78.65-12s21.07,17.93,18.23,25c-7,17.36-52.6-22.51-52.6-22.51S373.71,358.62,394.21,380.65Z"/><path class="cls-5" d="M346.79,456.26a134.18,134.18,0,0,0,15.45,15.3"/><path class="cls-5" d="M338.57,461.63s46.68-31.74,90.77-48.44"/><path class="cls-5" d="M380.52,396.83s-33.78,33.69-34.76,60.08"/><path class="cls-5" d="M429.54,473.69s-42.47-19.22-71.2-24.61"/></g><circle class="cls-6" cx="250" cy="306.41" r="180.37"/><path class="cls-7" d="M141.72,335a557.31,557.31,0,0,0,88.55,35.74A483.55,483.55,0,0,1,170,326.29a353.81,353.81,0,0,1-67.91-78.72q-7-11-13.11-22.53A180.38,180.38,0,0,0,365.47,445C282.58,429.09,198.75,398,141.72,335Z"/><path class="cls-6" d="M365.47,445a181.27,181.27,0,0,0,39.14-45.63c-91-3.32-181.66-23-262.9-64.34C198.75,398,282.58,429.09,365.47,445Z"/><g class="cls-8"><rect class="cls-4" x="118.73" y="310.91" width="14.75" height="8.14"/><rect class="cls-4" x="115.22" y="306.41" width="21.77" height="5.73"/><path class="cls-9" d="M126.11,385.37h0a10.75,10.75,0,0,1-10.75-10.75V314.79h21.5v59.82A10.75,10.75,0,0,1,126.11,385.37Z"/><path class="cls-10" d="M131.47,331.85c-4.71-.11-9.41-.16-14.12-.2v43a8.75,8.75,0,1,0,17.5,0V332C133.71,331.93,132.58,331.87,131.47,331.85Z"/><circle class="cls-11" cx="130.86" cy="339.9" r="1.78"/><circle class="cls-11" cx="121.25" cy="373.54" r="1.78"/><circle class="cls-11" cx="125.76" cy="350.65" r="1.26"/><circle class="cls-11" cx="122.04" cy="341.15" r="1.26"/><circle class="cls-11" cx="130.93" cy="358.33" r="1.26"/><ellipse class="cls-12" cx="126.11" cy="332.01" rx="8.75" ry="1.3"/><rect class="cls-4" x="152.72" y="310.91" width="14.75" height="8.14"/><rect class="cls-4" x="149.21" y="306.41" width="21.77" height="5.73"/><path class="cls-9" d="M160.1,385.37h0a10.75,10.75,0,0,1-10.75-10.75V314.79h21.5v59.82A10.75,10.75,0,0,1,160.1,385.37Z"/><path class="cls-10" d="M165.47,331.85c-4.71-.11-9.41-.16-14.12-.2v43a8.75,8.75,0,1,0,17.5,0V332C167.7,331.93,166.57,331.87,165.47,331.85Z"/><circle class="cls-11" cx="164.86" cy="339.9" r="1.78"/><circle class="cls-11" cx="155.25" cy="373.54" r="1.78"/><circle class="cls-11" cx="159.76" cy="350.65" r="1.26"/><circle class="cls-11" cx="156.03" cy="341.15" r="1.26"/><circle class="cls-11" cx="164.93" cy="358.33" r="1.26"/><ellipse class="cls-12" cx="160.1" cy="332.01" rx="8.75" ry="1.3"/><path class="cls-13" d="M156.39,363.31h0a1.82,1.82,0,0,1-1.82-1.82V324a1.82,1.82,0,0,1,1.82-1.82h0a1.82,1.82,0,0,1,1.82,1.82v37.5A1.82,1.82,0,0,1,156.39,363.31Z"/><path class="cls-14" d="M96.18,366.37h86.75a3.54,3.54,0,0,1,3.54,3.54v37.9a0,0,0,0,1,0,0H92.64a0,0,0,0,1,0,0v-37.9A3.54,3.54,0,0,1,96.18,366.37Z"/><path class="cls-13" d="M122.61,363.31h0a1.82,1.82,0,0,1-1.82-1.82V324a1.82,1.82,0,0,1,1.82-1.82h0a1.82,1.82,0,0,1,1.82,1.82v37.5A1.82,1.82,0,0,1,122.61,363.31Z"/><circle class="cls-15" cx="88.89" cy="443.15" r="83.05"/><circle class="cls-15" cx="416.8" cy="425.54" r="83.05"/><circle class="cls-15" cx="172.26" cy="447.79" r="57.87"/><circle class="cls-15" cx="330.69" cy="447.79" r="57.87"/><ellipse class="cls-15" cx="247.02" cy="454.28" rx="67.87" ry="69.63"/><path class="cls-16" d="M347.26,420.37c-12.68,8.64-24.69,13.11-26.83,10s6.42-12.67,19.1-21.32,23.22-14,25.36-10.85S359.95,411.73,347.26,420.37Z"/><path class="cls-17" d="M358.65,403.78a61.33,61.33,0,0,0,5.26-4.23c.74-.69,1.44-1.3,2.24-2.13a23.88,23.88,0,0,0,5.19-8.3,26.15,26.15,0,0,0,1.44-6.2,25,25,0,0,0-.09-6.4c-.2-1.32-.38-3.07-1.75-3.05a4.41,4.41,0,0,0-3.42,2.58c-.7,1.63-.25,3.77-.59,5.51a19.43,19.43,0,0,1-1.68,5,16.91,16.91,0,0,1-2.61,3.85,21.69,21.69,0,0,1-3.65,3.13,55.46,55.46,0,0,1-7.48,4.61A61.87,61.87,0,0,0,358.65,403.78Z"/><path class="cls-16" d="M387.46,374.93A78,78,0,0,1,369.56,402c-6.27,6.14-12.66,12.69-22.57,17.27l5.35-16.67s20.35-15.81,26.89-24.57S387.46,374.93,387.46,374.93Z"/><path class="cls-16" d="M338.8,403.67S277,422.29,229.48,415.77l-45.8-6.62S96.24,367.82,75.46,352.07c-9.57,22.37,9.84,71.37,9.84,71.37,20.23,16.67,51.7,26.08,51.7,26.08s23.89,12.83,88,10.9c15.85-.47,79.22-8.19,111.54-34.4Z"/><path class="cls-16" d="M380.45,374.13S369.59,403,340.05,418.61l6.79-15s19.49-16.87,25.56-26S380.45,374.13,380.45,374.13Z"/><path class="cls-17" d="M355.39,389.86s3.54-7.4.07-9.73-5,4.51-8.65,9-16.54,5.47-18.42,17.85h16.45S355.55,405.48,355.39,389.86Z"/><path class="cls-16" d="M315.91,425s2.38-21.93,19.83-25.43c2.89-.58,7.22-1.27,9.59-2.62,8.13-4.6,10.81-6.62,12.66-12.57,3-9.53,10.67-3.45,3.78,7s-13.24,22.05-13.24,22.05l-11.1,8.74Z"/><path class="cls-17" d="M372.94,390.76a62.83,62.83,0,0,1-38.61,27c-13.69,9-27.38,17.85-39.33,21.28-29.33,8.41-60.49,10.79-90.89,9.3-30.89-1.52-71.76-21.35-107.27-43.6-11.77-7.37-20.23-9.34-17.52.83,3,10.4,6,17.84,6,17.84,20.23,16.67,51.7,26.08,51.7,26.08s23.89,12.83,88,10.9c15.43-.46,75.88-7.79,108.9-32.35a96.83,96.83,0,0,0,13.33-7.7c2.06-1.4,4-2.86,5.71-4.31,6.69-4.17,11.68-9.22,16.59-14a78,78,0,0,0,17.9-27.09,3.12,3.12,0,0,0-.83-1.27c-.29,2.32-3.72,4.23-5.61,6.3A74.24,74.24,0,0,0,372.94,390.76Z"/><path class="cls-10" d="M362.5,306.51l12.56,19.59a15.12,15.12,0,1,1-25.46,0l12.56-19.59a.21.21,0,0,1,.29-.06Z"/><path class="cls-12" d="M375.06,326.1l-3.87-6c8.68,15.78-3.94,33.9-20.59,23.73a15.12,15.12,0,0,0,24.46-17.68Z"/><circle class="cls-11" cx="351.62" cy="332.37" r="1.91"/><path class="cls-18" d="M352.58,337.83a9.52,9.52,0,0,0,3.24,5"/><path class="cls-19" d="M252.17,388h-4.33a4.9,4.9,0,0,1-4.87-4.36l-1.74-15.87h17.54L257,383.68A4.9,4.9,0,0,1,252.17,388Z"/><path class="cls-20" d="M159.51,430.72c25.26,5.24,40.78-2.69,49.06-7.49,24.56-14.25,43-9,55.16-1.06,47.92,31.3,76,23.42,73.77,2-3.75-35.32-90.45,3.46-87.51-46.22"/><rect class="cls-21" x="130.78" y="414.61" width="26.85" height="25.15" rx="3.25" ry="3.25" transform="translate(96.27 -21.13) rotate(12.55)"/><rect class="cls-15" x="136.63" y="418.76" width="15.15" height="16.85" rx="2.33" ry="2.33" transform="translate(-304.11 475.12) rotate(-77.45)"/><rect class="cls-21" x="153.97" y="427.95" width="11.34" height="5.34" transform="translate(97.38 -24.4) rotate(12.55)"/><path class="cls-22" d="M159.51,430.72c25.26,5.24,40.78-2.69,49.06-7.49,24.56-14.25,43-9,55.16-1.06,47.92,31.3,76,23.42,73.77,2-3.75-35.32-90.45,3.46-87.51-46.22"/><path class="cls-19" d="M290.81,211.9c-15.17,0-31.57,7.93-40.81,21.64-9.24-13.71-25.64-21.64-40.81-21.64-27.22,0-49.87,19.75-46.25,53.34,5.89,54.7,82.84,106,87.07,108.73,4.22-2.77,81.18-54,87.07-108.73C340.68,231.64,318,211.9,290.81,211.9Z"/><rect class="cls-19" x="244.54" y="121.79" width="9.76" height="111.02"/><rect class="cls-4" x="234.53" y="188.6" width="29.78" height="7.74"/><polygon class="cls-19" points="281.78 236.26 218.22 236.26 232.26 206.73 267.74 206.73 281.78 236.26"/><path class="cls-7" d="M250,367.82a316.14,316.14,0,0,1-42.56-35.6c-24-24.17-37.22-46.89-39.44-67.53-1.5-14,1.82-25.91,9.61-34.59,7.6-8.46,18.82-13.12,31.58-13.12a45.25,45.25,0,0,1,36.59,19.4,5.09,5.09,0,0,0,8.44,0A45.25,45.25,0,0,1,290.81,217c12.77,0,24,4.66,31.58,13.12,7.79,8.67,11.11,20.63,9.61,34.59-2.22,20.64-15.49,43.36-39.44,67.53A316,316,0,0,1,250,367.82Z"/><path class="cls-7" d="M250,361.59a309.16,309.16,0,0,1-38.95-33c-23.12-23.33-35.9-45-38-64.49-1.34-12.48,1.54-23.07,8.33-30.64,6.62-7.37,16.49-11.43,27.8-11.43a40,40,0,0,1,32.37,17.15,10.18,10.18,0,0,0,16.88,0,40,40,0,0,1,32.38-17.15c11.3,0,21.17,4.06,27.79,11.43,6.8,7.57,9.68,18.16,8.34,30.64-2.1,19.46-14.88,41.16-38,64.49A309,309,0,0,1,250,361.59Z"/><g class="cls-23"><path class="cls-12" d="M232.88,243.1c-28-8.94-54.71-16-59.51,7.56-8.34,5.38-9.66,7.51-9.55,8.54,2.35,21.8,16.67,46.1,42.56,72.24A346.31,346.31,0,0,0,250,368.36a346.11,346.11,0,0,0,43.63-36.91c25.89-26.13,40.22-50.44,42.56-72.24.49-4.54.82-5.34.32-9.39C299.75,232.5,274.22,256.3,232.88,243.1Z"/><path class="cls-10" d="M248.23,257.94c-57.28,18.6-75.1-4.94-80.2-15.22-1.68,1.65-4.27,16-4.22,16.47,2.35,21.8,16.67,46.1,42.56,72.24A346.31,346.31,0,0,0,250,368.36a346.11,346.11,0,0,0,43.63-36.91c25.89-26.13,40.22-50.44,42.56-72.24.49-4.54.71-6.26.22-10.31C311.15,226,266.59,252,248.23,257.94Z"/></g><circle class="cls-11" cx="281.39" cy="264.22" r="5.33"/><circle class="cls-11" cx="212.89" cy="279" r="4.67"/><circle class="cls-11" cx="195.11" cy="293.29" r="2.87"/><circle class="cls-11" cx="272.9" cy="319.61" r="2.87"/><circle class="cls-11" cx="224.7" cy="313.22" r="4.56"/><circle class="cls-11" cx="243.1" cy="338.7" r="2.87"/><path class="cls-24" d="M303.32,293.6a116,116,0,0,1-9.31,14"/><path class="cls-24" d="M316.38,254.91s-.75,11.19-7.07,26.4"/><rect class="cls-15" x="244.54" y="266.75" width="10.65" height="50.18" rx="2.14" ry="2.14"/><rect class="cls-15" x="244.54" y="266.75" width="10.65" height="50.18" rx="2.14" ry="2.14" transform="translate(541.7 41.97) rotate(90)"/><polygon class="cls-10" points="251.35 381.31 248.65 381.31 247.06 350.31 252.94 350.31 251.35 381.31"/></g><text class="cls-25" transform="translate(196.94 76.94)">DON<tspan class="cls-26" x="61.1" y="0">A</tspan><tspan class="cls-27" x="77.34" y="0">TE</tspan></text><text class="cls-28" transform="translate(156.71 136.31)">B<tspan class="cls-29" x="33.9" y="0">L</tspan><tspan x="61.1" y="0">OOD</tspan></text><path class="cls-30" d="M173.21,160.68"/><path class="cls-30" d="M211.2,160.68"/><path class="cls-30" d="M288.8,160.68"/><path class="cls-30" d="M326.79,160.68"/><polygon class="cls-31" points="384.98 160.29 374.32 160.29 374.32 149.63 365.46 149.63 365.46 160.29 354.8 160.29 354.8 169.15 365.46 169.15 365.46 179.81 374.32 179.81 374.32 169.15 384.98 169.15 384.98 160.29"/><polygon class="cls-31" points="109.5 226.27 98.84 226.27 98.84 215.61 89.98 215.61 89.98 226.27 79.32 226.27 79.32 235.13 89.98 235.13 89.98 245.78 98.84 245.78 98.84 235.13 109.5 235.13 109.5 226.27"/><polygon class="cls-31" points="407.63 80.64 396.97 80.64 396.97 69.98 388.11 69.98 388.11 80.64 377.45 80.64 377.45 89.5 388.11 89.5 388.11 100.16 396.97 100.16 396.97 89.5 407.63 89.5 407.63 80.64"/><polygon class="cls-31" points="137.57 160.09 129.47 160.09 129.47 151.99 122.74 151.99 122.74 160.09 114.64 160.09 114.64 166.82 122.74 166.82 122.74 174.91 129.47 174.91 129.47 166.82 137.57 166.82 137.57 160.09"/><polygon class="cls-31" points="432.52 235.16 424.42 235.16 424.42 227.07 417.69 227.07 417.69 235.16 409.6 235.16 409.6 241.89 417.69 241.89 417.69 249.99 424.42 249.99 424.42 241.89 432.52 241.89 432.52 235.16"/><polygon class="cls-31" points="119.96 85.33 111.86 85.33 111.86 77.23 105.13 77.23 105.13 85.33 97.03 85.33 97.03 92.06 105.13 92.06 105.13 100.16 111.86 100.16 111.86 92.06 119.96 92.06 119.96 85.33"/></g></g></svg>