<svg xmlns="http://www.w3.org/2000/svg" viewBox="0 0 298.11 434.84"><defs><style>.cls-1{isolation:isolate;}.cls-12,.cls-2{fill:#97bdc5;}.cls-3{fill:#c0cdc7;}.cls-10,.cls-4{fill:#9a1200;}.cls-19,.cls-5{fill:#e62101;}.cls-14,.cls-22,.cls-6{fill:#fff;}.cls-26,.cls-6{opacity:0.6;}.cls-27,.cls-7{fill:#fdcb40;}.cls-8{fill:#fde376;}.cls-9{fill:#661a19;}.cls-10,.cls-12,.cls-13,.cls-15,.cls-23,.cls-27,.cls-9{mix-blend-mode:multiply;}.cls-11{fill:#390700;}.cls-13{fill:#b9b9b9;}.cls-14,.cls-16{mix-blend-mode:overlay;}.cls-15{fill:#868787;}.cls-16{fill:#9dfdff;}.cls-17{fill:#aa1723;}.cls-18{fill:#971216;}.cls-19,.cls-28{opacity:0.8;}.cls-20{fill:#630b0d;}.cls-21{fill:#4d0c0d;}.cls-23,.cls-29{fill:#be4032;}.cls-23{opacity:0.5;}.cls-24{fill:#fdb63a;}.cls-25{fill:#ffd8ca;}.cls-26{fill:#fddf80;}.cls-26,.cls-28{mix-blend-mode:screen;}.cls-30{font-size:28.24px;font-family:MyriadPro-Regular, Myriad Pro;}.cls-31{letter-spacing:0em;}.cls-32{letter-spacing:0em;}.cls-33{letter-spacing:0em;}.cls-34{letter-spacing:0em;}</style></defs><title>plasma</title><g class="cls-1"><g id="Layer_2" data-name="Layer 2"><g id="Layer_1-2" data-name="Layer 1"><path class="cls-2" d="M44.27,91.83V388.29c-.1,15.34,3.41,32.95,17.91,41a42.46,42.46,0,0,0,42.12,0c14.49-8,18-25.62,17.91-41V91.83Z"/><path class="cls-3" d="M48.23,91.83V384.92c-.09,15.06,3.06,32.34,16.09,40.21a35.34,35.34,0,0,0,37.84,0c13-7.87,16.18-25.16,16.09-40.21V91.83Z"/><path class="cls-4" d="M118.24,311c0,3.37-15.67,6.09-35,6.09s-35-2.73-35-6.09h0v73.91c-.09,15.06,3.06,32.34,16.09,40.21a35.34,35.34,0,0,0,37.84,0c13-7.87,16.18-25.16,16.09-40.21V311Z"/><ellipse class="cls-5" cx="83.24" cy="311.01" rx="35" ry="6.09"/><path class="cls-6" d="M49.57,311c0-3.33,15.31-6,34.34-6.09h-.67c-19.34,0-35,2.73-35,6.09s15.67,6.09,35,6.09h.67C64.88,317,49.57,314.34,49.57,311Z"/><path class="cls-7" d="M118.24,300.17c0,3.36-15.67,6.09-35,6.09s-35-2.73-35-6.09V160.44h70Z"/><ellipse class="cls-8" cx="83.24" cy="160.44" rx="35" ry="6.09"/><path class="cls-6" d="M49.57,160.44c0-3.33,15.31-6,34.34-6.09h-.67c-19.34,0-35,2.73-35,6.09s15.67,6.09,35,6.09h.67C64.88,166.46,49.57,163.76,49.57,160.44Z"/><path class="cls-9" d="M116.83,395.43a29.9,29.9,0,0,1-7.26,10.31,40.3,40.3,0,0,1-23.71,10.93,32.2,32.2,0,0,1-12.68-1.55,31.59,31.59,0,0,1-18.25-11.7,28.35,28.35,0,0,1-5.5-8.11c1.34,11.68,5.42,23.09,15.25,29a34.68,34.68,0,0,0,37.12,0c10-6.06,14.1-17.82,15.34-29.75C117,394.87,116.94,395.15,116.83,395.43Z"/><path class="cls-10" d="M84.7,425a34,34,0,0,1-24.8-7.63A39.6,39.6,0,0,1,52.6,409c2.42,6.31,6.23,11.78,12.08,15.31a34.68,34.68,0,0,0,37.12,0c7.09-4.28,11.19-11.41,13.44-19.44C108.39,415.67,97.72,424,84.7,425Z"/><path class="cls-11" d="M49.57,84.33v26c0,3.24,15.08,5.86,33.67,5.86s33.67-2.62,33.67-5.86v-26Z"/><path class="cls-12" d="M106.1,91.83V377.75a98.21,98.21,0,0,1-1.23,21.45c-1.16,6.82-2.23,14.28-7.42,19.35-7.32,7.15-20.24,9.11-29.49,4.94C60.58,420.16,54.08,415,50,407.92a73.92,73.92,0,0,1-5.5-12.37c1,13.31,5.42,26.93,17.66,33.7a42.46,42.46,0,0,0,42.12,0c14.49-8,18-25.62,17.91-41V91.83Z"/><path class="cls-13" d="M119.07,93l.58,293.08c.14,15.16-3.28,32.58-17.64,40.54a42.2,42.2,0,0,1-41.6.22c.62.4,1.25.79,1.91,1.15a42,42,0,0,0,41.63-.13c14.3-8,17.72-25.38,17.57-40.54L120.95,93Z"/><path class="cls-14" d="M45.54,100.27V387.64s.68,24.18,10.5,33.82c0,0-8.12-8.81-9.31-33.58L47,100.27Z"/><path class="cls-15" d="M122.21,101.68V91.83H44.27v11.7C55.7,106.57,87.7,114.33,122.21,101.68Z"/><path class="cls-16" d="M50.07,88.38V384.92s-.92,33.68,21.45,42.25c0,0-11.45-9.65-12.64-32.27s.36-305.2.36-305.2Z"/><ellipse class="cls-17" cx="83.09" cy="61.64" rx="42.06" ry="7.32"/><path class="cls-18" d="M41.17,61.64V94.15c0,4,18.84,7.32,42.07,7.32s42.06-3.28,42.06-7.32V61.64Z"/><path class="cls-19" d="M56.34,61.64h-8c0,12.2.08,24.4.06,36.61a77.08,77.08,0,0,0,7.9,1.52Q56.29,80.71,56.34,61.64Z"/><path class="cls-20" d="M121.59,61.64H103.33q0,19.47,0,38.94c8-.76,14.36-2,18.15-3.4Q121.51,79.41,121.59,61.64Z"/><ellipse class="cls-21" cx="83.24" cy="61.64" rx="42.06" ry="7.32"/><path class="cls-22" d="M42,63C45.72,66.42,62.77,69,83.24,69s37.52-2.55,41.28-5.92c-6,3-22.22,5.09-41.28,5.09S48,66,42,63Z"/><polygon class="cls-23" points="213.73 182.08 159.9 234.24 159.9 164.09 132.96 164.09 132.96 166.65 157.33 166.65 157.33 293.99 132.96 293.99 132.96 296.55 159.9 296.55 159.9 236.8 213.73 184.65 213.73 182.08"/><polygon class="cls-24" points="212.06 179.91 158.23 232.07 158.23 161.92 131.29 161.92 131.29 164.49 155.67 164.49 155.67 291.82 131.29 291.82 131.29 294.39 158.23 294.39 158.23 234.63 212.06 182.48 212.06 179.91"/><circle class="cls-25" cx="246.41" cy="152.47" r="51.71"/><path class="cls-7" d="M226.38,140.59c-4.17,8.15-6.32,20.11-1.53,28.48a21.87,21.87,0,0,0,4.94,6,28,28,0,0,0,10.89,5.39,27.54,27.54,0,0,0,5.42.74h.61a27.51,27.51,0,0,0,5.41-.74A28,28,0,0,0,263,175.06a22.07,22.07,0,0,0,5-6c4.79-8.37,2.63-20.33-1.54-28.48l-20-39.43Z"/><path class="cls-26" d="M230.51,133.89c-3.31,6.27-5,15.46-1.21,21.9a17.14,17.14,0,0,0,3.93,4.61,22.17,22.17,0,0,0,12.94,4.72h.48a22.16,22.16,0,0,0,12.94-4.72,17.16,17.16,0,0,0,3.93-4.61c3.8-6.44,2.09-15.63-1.22-21.9l-15.89-30.31Z"/><path class="cls-27" d="M225.24,166.31s4.7,12.48,21.31,13,25.18-15.79,22.42-29.47c0,0,0,20.35-23.88,19.56s-19.54-24.44-19.54-24.44S220.55,154.19,225.24,166.31Z"/><path class="cls-27" d="M233.63,174.37s12.53,8.41,27-1.48c0,0,1.71-2.38-2.51-2.11s-16.76,1.74-23.66-.92S230.6,172.24,233.63,174.37Z"/><g class="cls-28"><path class="cls-22" d="M232.64,160.77c-2.49-.77-4.92-1.74-7.4-2.53a18.74,18.74,0,0,0,6.67,14.19,25.49,25.49,0,0,0,2.8,1.94,30.11,30.11,0,0,1-2-9.62C232.63,163.43,232.61,162.1,232.64,160.77Z"/><path class="cls-22" d="M246.41,108l-17.47,34.38A35.13,35.13,0,0,0,225.55,153q3.65,1.48,7.41,2.69c.2-1.94.51-3.87.9-5.8a112.53,112.53,0,0,1,4-13.75c3.15-9.19,6.77-18.28,8.71-27.83Z"/></g><path class="cls-27" d="M266,140.32s-17.62-33.6-19.64-37.58c1.43,6.93,2.45,14.42,3.52,21.41q1.15,7.46,2,15a92.54,92.54,0,0,1,1,14.35c-.17,4.08-.73,8.44-2.64,12.1a18.1,18.1,0,0,1-6.77,7.17,18.89,18.89,0,0,1-13.23,2.22,26.44,26.44,0,0,0,15.34,5.58h.58a26.47,26.47,0,0,0,15.83-6,21.37,21.37,0,0,0,4.8-5.81C271.49,160.64,270.05,148.23,266,140.32Z"/><path class="cls-29" d="M232.5,192.3h.27a8.32,8.32,0,0,0,1.67-.11,1.83,1.83,0,0,0,1-.62,1.79,1.79,0,0,0,.38-1.17,1.77,1.77,0,0,0-.39-1.17,1.81,1.81,0,0,0-1-.61,7.35,7.35,0,0,0-1.52-.1h-1.46v6.75h1Zm.89-1h-.89v-1.79h.94a2.5,2.5,0,0,1,.86.1.76.76,0,0,1,.37.31.88.88,0,0,1,.15.48.89.89,0,0,1-.14.49.81.81,0,0,1-.38.31A2.71,2.71,0,0,1,233.4,191.32Z"/><rect class="cls-29" x="236.56" y="188.36" width="0.98" height="6.91"/><path class="cls-29" d="M240.81,195.39a2.53,2.53,0,0,0,1.12-.25,2.61,2.61,0,0,0,.59-.4v.53h1v-5.09h-1v.55a2.34,2.34,0,0,0-1.69-.67,2.52,2.52,0,0,0-1.85.78,2.59,2.59,0,0,0-.77,1.87,2.62,2.62,0,0,0,.76,1.89A2.49,2.49,0,0,0,240.81,195.39Zm-1.61-2.66a1.73,1.73,0,0,1,.23-.86,1.64,1.64,0,0,1,1.45-.85,1.59,1.59,0,0,1,1.19.49,1.68,1.68,0,0,1,.49,1.24,1.75,1.75,0,0,1-.22.87,1.57,1.57,0,0,1-.61.61,1.66,1.66,0,0,1-1.68,0,1.71,1.71,0,0,1-.62-.64A1.74,1.74,0,0,1,239.2,192.73Z"/><path class="cls-29" d="M245.59,194.44a1.16,1.16,0,0,1-.85-.46l-.14-.16-.63.71.1.12a1.91,1.91,0,0,0,.68.54,2,2,0,0,0,.86.2,1.59,1.59,0,0,0,1.15-.46,1.52,1.52,0,0,0,.46-1.12A1.4,1.4,0,0,0,247,193a2.83,2.83,0,0,0-1-.73,2.18,2.18,0,0,1-.67-.45.48.48,0,0,1-.13-.32.41.41,0,0,1,.15-.32c.3-.27.75-.17,1.2.27l.13.13.65-.67-.14-.13a2.11,2.11,0,0,0-1.44-.69,1.47,1.47,0,0,0-1.05.41,1.37,1.37,0,0,0-.42,1,1.43,1.43,0,0,0,.27.84,2.6,2.6,0,0,0,.93.71,2.48,2.48,0,0,1,.71.46.5.5,0,0,1,.12.34.53.53,0,0,1-.19.41A.7.7,0,0,1,245.59,194.44Z"/><path class="cls-29" d="M248.9,193.08a3.49,3.49,0,0,1,.16-1.24,1.31,1.31,0,0,1,.47-.6,1.18,1.18,0,0,1,.68-.22.88.88,0,0,1,.52.15.79.79,0,0,1,.3.4,3.85,3.85,0,0,1,.1,1.1v2.6h1v-2a4.32,4.32,0,0,1,.15-1.38,1.31,1.31,0,0,1,.47-.61,1.16,1.16,0,0,1,.7-.22.93.93,0,0,1,.52.14.75.75,0,0,1,.3.37,3.17,3.17,0,0,1,.1,1v2.76h1v-2.76a3.83,3.83,0,0,0-.2-1.4,1.64,1.64,0,0,0-.62-.77,1.91,1.91,0,0,0-2,0,2.26,2.26,0,0,0-.62.59,1.78,1.78,0,0,0-.23-.36,1.62,1.62,0,0,0-.57-.4,1.94,1.94,0,0,0-1.79.16,2,2,0,0,0-.36.3v-.48h-1v5.09h1Z"/><path class="cls-29" d="M258.64,195.39a2.51,2.51,0,0,0,1.12-.25,2.6,2.6,0,0,0,.58-.4v.53h1v-5.09h-1v.55a2.33,2.33,0,0,0-1.69-.67,2.51,2.51,0,0,0-1.85.78,2.58,2.58,0,0,0-.77,1.87,2.63,2.63,0,0,0,.76,1.89A2.5,2.5,0,0,0,258.64,195.39ZM257,192.73a1.69,1.69,0,0,1,.23-.86,1.62,1.62,0,0,1,.61-.63,1.64,1.64,0,0,1,.84-.22,1.6,1.6,0,0,1,1.19.49,1.7,1.7,0,0,1,.48,1.24,1.75,1.75,0,0,1-.22.87,1.54,1.54,0,0,1-.61.61,1.66,1.66,0,0,1-1.68,0,1.68,1.68,0,0,1-.62-.64A1.72,1.72,0,0,1,257,192.73Z"/><text class="cls-30" transform="translate(0 23.64)"><tspan class="cls-31">P</tspan><tspan class="cls-32" x="14.89" y="0">lasma </tspan><tspan class="cls-33" x="89.51" y="0">D</tspan><tspan class="cls-32" x="108.43" y="0">on</tspan><tspan class="cls-34" x="139.61" y="0">a</tspan><tspan x="153.11" y="0">tion</tspan></text></g></g></g></svg>