<?xml version="1.0" standalone="no"?>
<!DOCTYPE svg PUBLIC "-//W3C//DTD SVG 20010904//EN"
 "http://www.w3.org/TR/2001/REC-SVG-20010904/DTD/svg10.dtd">
<svg version="1.0" xmlns="http://www.w3.org/2000/svg"
 width="700.000000pt" height="700.000000pt" viewBox="0 0 700.000000 700.000000"
 preserveAspectRatio="xMidYMid meet">
<metadata>
Created by potrace 1.11, written by Peter Selinger 2001-2013
</metadata>
<g transform="translate(0.000000,700.000000) scale(0.100000,-0.100000)"
fill="#000000" stroke="none">
<path d="M3345 6847 c-134 -136 -332 -346 -427 -452 -97 -108 -156 -174 -214
-241 -64 -72 -231 -272 -299 -359 -22 -27 -42 -52 -45 -55 -3 -3 -44 -54 -92
-115 -699 -897 -1150 -1720 -1313 -2400 -37 -151 -39 -162 -55 -275 -30 -207
-32 -412 -4 -654 3 -27 7 -56 9 -65 1 -9 6 -36 10 -61 18 -113 91 -385 126
-467 5 -13 13 -33 18 -45 139 -341 321 -617 576 -873 226 -228 427 -376 694
-509 190 -96 483 -196 649 -222 20 -3 40 -8 43 -10 4 -2 26 -6 50 -9 24 -3 55
-7 69 -10 148 -29 585 -26 765 6 33 5 69 12 80 13 55 10 249 59 320 83 328
107 570 241 885 488 54 43 300 294 351 360 123 155 210 288 287 440 64 124
123 255 115 255 -3 0 -1 6 5 13 5 6 28 68 50 137 126 395 159 805 92 1129 -40
191 -152 467 -240 591 -11 16 -20 31 -20 34 0 12 -120 186 -203 295 -66 87
-266 332 -287 351 -3 3 -39 43 -80 90 -41 47 -77 87 -80 90 -3 3 -39 43 -80
90 -41 47 -79 90 -85 96 -21 23 -151 168 -165 184 -8 9 -40 46 -70 80 -30 35
-60 68 -65 74 -6 6 -42 49 -80 96 -38 47 -72 87 -76 90 -12 10 -167 208 -251
320 -132 178 -287 412 -370 560 -14 25 -35 63 -48 85 -32 57 -133 258 -169
337 -70 154 -95 218 -171 437 -25 74 -50 136 -55 138 -6 1 -73 -61 -150 -140z
m-135 -2190 c0 -4 -18 -28 -41 -51 -70 -76 -248 -304 -312 -402 -15 -21 -45
-66 -68 -99 -59 -86 -237 -383 -300 -500 -89 -168 -107 -200 -113 -198 -4 1
-91 45 -195 97 l-189 94 15 29 c8 15 38 73 66 128 28 55 53 102 56 105 3 3 13
19 21 35 28 57 194 330 202 333 4 2 8 7 8 12 0 33 313 464 450 620 12 14 38
44 58 67 l37 42 153 -152 c83 -83 152 -155 152 -160z"/>
</g>
</svg>
